<svg version="1.0" xmlns="http://www.w3.org/2000/svg"
 width="50.000000pt" height="50.000000pt" viewBox="0 0 50.000000 50.000000"
 preserveAspectRatio="xMidYMid meet">

<g transform="translate(0.000000,50.000000) scale(0.100000,-0.100000)"
fill="#18e229" stroke="none">
<path fill="#18e229" d="M187 440 c-6 -29 -8 -30 -62 -30 l-55 0 0 -125 c0 -118 -1 -125 -20
-125 -11 0 -20 -4 -20 -10 0 -5 23 -10 51 -10 43 0 50 -2 45 -17 -13 -46 -17
-93 -8 -93 5 0 13 17 16 37 13 72 14 73 62 73 l44 0 0 -40 c0 -22 5 -40 10
-40 6 0 10 18 10 40 l0 40 44 0 c48 0 49 -1 62 -72 3 -21 11 -38 16 -38 9 0 5
47 -8 93 -5 15 2 17 45 17 28 0 51 5 51 10 0 6 -9 10 -20 10 -19 0 -20 7 -20
125 l0 125 -55 0 c-54 0 -56 1 -61 30 -4 17 -11 30 -16 30 -6 0 -8 -13 -4 -30
l6 -30 -50 0 -49 0 6 30 c3 17 1 30 -4 30 -6 0 -13 -13 -16 -30z m223 -165 l0
-115 -160 0 -160 0 0 115 0 115 160 0 160 0 0 -115z"/>
<path fill="#18e229" d="M130 345 c0 -8 7 -15 15 -15 8 0 15 7 15 15 0 8 -7 15 -15 15 -8 0
-15 -7 -15 -15z"/>
<path fill="#18e229" d="M261 304 c-19 -25 -20 -25 -31 -5 -6 12 -14 21 -19 21 -8 0 -101
-114 -101 -124 0 -3 63 -6 140 -6 77 0 140 3 140 6 0 10 -93 134 -101 134 -4
0 -17 -11 -28 -26z m67 -49 l33 -45 -71 0 c-38 0 -70 3 -70 6 0 8 63 84 69 84
3 -1 21 -21 39 -45z m-105 23 c6 -20 -32 -68 -54 -68 -25 0 -24 5 9 46 29 37
38 41 45 22z"/>
</g>
</svg>
